<?xml version="1.0" encoding="utf-8"?>

<!DOCTYPE svg PUBLIC "-//W3C//DTD SVG 1.1//EN" "http://www.w3.org/Graphics/SVG/1.1/DTD/svg11.dtd">
<!-- Uploaded to: SVG Repo, www.svgrepo.com, Generator: SVG Repo Mixer Tools -->
<svg height="800px" width="800px" version="1.1" id="_x32_" xmlns="http://www.w3.org/2000/svg" xmlns:xlink="http://www.w3.org/1999/xlink" 
	 viewBox="0 0 512 512"  xml:space="preserve">
<style type="text/css">
	.st0{fill:#000000;}
</style>
<g>
	<path class="st0" d="M354.658,92.82c-4.356,0.027-8.114,1.715-10.986,4.558c-2.851,2.872-4.552,6.637-4.559,10.986
		c0.007,4.363,1.708,8.113,4.559,10.985c2.872,2.844,6.629,4.544,10.986,4.572c4.364-0.028,8.107-1.729,10.992-4.572
		c2.83-2.872,4.531-6.622,4.545-10.985c-0.014-4.35-1.715-8.114-4.545-10.986C362.765,94.535,359.021,92.847,354.658,92.82z"/>
	<path class="st0" d="M431.327,31.772C411.168,11.572,383.23,0,354.658,0c-28.544,0-56.482,11.572-76.55,31.646
		c-20.249,20.158-31.848,48.139-31.827,76.676c-0.021,28.594,11.564,56.573,31.688,76.62c0.265,0.266,0.537,0.53,0.808,0.809v135.45
		c-0.007,10.568-3.973,20.131-11.397,27.576c-7.521,7.5-17.071,11.474-27.624,11.474c-10.554,0-20.11-3.973-27.555-11.404
		c-2.237-2.246-4.154-4.657-5.75-7.236c7.479-3.666,14.164-8.964,19.552-15.669c6.936-8.617,17.635-27.339,11.376-55.89
		c-2.649-12.03,4.182-39.592,6.42-48.64c6.531-26.334-1.645-44.068-9.654-54.315c-10.525-13.439-26.488-21.148-43.796-21.148
		c-3.206,0-6.455,0.264-9.689,0.794c-41.112,5.59-78.522,38.812-92.15,58.135l-1.757,2.342
		c-24.731,33.151-37.8,72.576-37.78,113.995c-0.02,50.997,19.832,98.912,55.842,134.881C140.823,492.147,188.745,512,239.756,512
		h0.035c50.982,0,98.891-19.853,134.845-55.848c36.066-36.01,55.918-83.925,55.897-134.922V185.752
		c0.237-0.238,0.474-0.475,0.704-0.712c20.214-20.158,31.806-48.11,31.792-76.647C463.042,79.771,451.443,51.805,431.327,31.772z
		 M394.947,148.654c-4.531,4.545-9.905,8.281-15.809,11.084V321.23c0.014,37.251-14.478,72.256-40.812,98.549
		c-26.3,26.334-61.292,40.834-98.535,40.834h-0.035c-37.286,0-72.278-14.5-98.578-40.834
		c-26.327-26.293-40.826-61.298-40.813-98.549c-0.013-30.28,9.515-59.068,27.576-83.27l2.258-3.012
		c4.712-8.002,32.698-34.49,58.273-37.389c4.956-1.088,7.877,1.673,5.444,11.488c-7.208,29.095-10.978,52.753-6.734,72.048
		c3.186,14.526-5.165,15.99-8.476,14.596c-3.485-1.449-12.826-7.668-20.668-13.062c-5.681,11.989-8.692,25.052-8.706,38.603
		c0.014,24.104,9.417,46.814,26.488,63.919c17.099,17.064,39.802,26.488,63.934,26.488c24.111,0,46.828-9.425,63.926-26.488
		c17.071-17.105,26.474-39.815,26.488-63.919V159.764c-5.897-2.83-11.278-6.566-15.81-11.111
		c-10.281-10.247-16.701-24.606-16.687-40.289c-0.014-15.67,6.406-30.057,16.687-40.29c10.254-10.261,24.627-16.688,40.297-16.688
		c15.663,0,30.05,6.427,40.29,16.688c10.275,10.233,16.694,24.62,16.688,40.29C411.642,124.048,405.222,138.406,394.947,148.654z"/>
</g>
</svg>