<?xml version="1.0" standalone="no"?>

<!DOCTYPE svg PUBLIC "-//W3C//DTD SVG 20010904//EN"

 "http://www.w3.org/TR/2001/REC-SVG-20010904/DTD/svg10.dtd">

<svg version="1.0" xmlns="http://www.w3.org/2000/svg"

 width="1024.000000pt" height="1024.000000pt" viewBox="0 0 1024.000000 1024.000000"

 preserveAspectRatio="xMidYMid meet">

<path fill="#000000" stroke="none" d="
M764 950

C751 940 722 916 699 898

C631 842 611 825 588 807

C508 742 487 722 440 666

C435 660 430 655 430 655

C430 655 428 656 427 657

C426 658 422 662 417 665

C413 669 408 673 406 676

C402 681 402 681 407 704

C415 745 425 768 463 839

C474 858 490 887 498 903

L512 932

L512 933

L511 933

L497 920

C445 875 394 814 361 757

C348 734 341 712 338 686

C334 647 342 620 368 588

C373 582 373 582 370 575

C364 560 363 547 367 535

C370 527 380 517 389 514

C397 511 405 510 414 510

C423 511 437 515 446 520

C451 523 451 523 460 519

C491 503 518 497 537 503

C553 508 559 513 563 525

C565 533 566 547 564 554

C561 570 547 587 526 601

C522 604 518 607 518 607

C518 610 536 636 589 706

C689 838 726 886 780 952

C787 961 790 965 788 967

L787 969

L764 950

Z

M424 477

C410 476 396 473 385 471

C372 468 372 468 361 454

C339 426 327 409 315 387

C302 364 275 303 274 294

C271 275 286 254 305 252

C318 250 335 259 348 276

C359 289 363 301 375 345

C385 384 389 398 394 408

C396 411 397 412 401 413

C403 413 417 415 431 418

C464 425 487 428 510 432

C533 435 562 438 565 438

L568 438

L562 436

C539 428 521 408 514 383

C512 372 512 353 515 343

C519 327 529 312 541 303

C568 280 609 282 634 307

L640 313

L640 306

C637 274 628 264 595 256

C583 253 559 249 530 247

C513 245 502 243 497 242

C489 239 480 235 477 231

C475 229 475 229 478 213

C480 205 483 192 485 186

C487 176 487 175 490 174

C495 172 499 173 528 178

C564 185 577 187 593 192

C622 199 640 208 652 222

C668 239 675 265 670 288

C670 292 666 307 662 320

C656 345 656 345 657 355

C660 380 651 403 633 421

C625 428 615 434 604 437

L597 439

L598 440

L599 441

L594 444

C591 446 588 447 587 447

C587 447 581 449 575 452

C554 462 525 471 497 475

C485 477 477 477 455 478

C440 478 426 478 424 477

Z

M598 423

C614 419 628 407 636 391

C640 382 642 374 642 364

C642 348 638 336 629 324

C615 306 590 298 570 304

C556 309 543 320 536 332

C528 345 526 365 530 379

C538 411 567 429 598 423

Z

M362 215

C345 211 335 206 323 195

C314 185 308 175 304 163

C297 138 304 111 324 91

C347 69 378 65 407 79

C428 90 442 109 446 135

C449 153 441 177 426 193

C410 210 384 219 362 215

Z

"/>

<path fill="#1c1c1c" stroke="none" d="
M511 932

L510 931

L511 931

L512 931

L512 932

L512 933

L512 933

C511 933 511 933 511 932

Z

M489 913

L488 912

L489 913

C490 914 491 914 491 915

L491 915

L491 915

C490 915 490 914 489 913

Z

M470 896

L465 890

L471 895

C474 899 477 902 477 902

L477 902

L477 902

C477 902 474 899 470 896

Z

M456 882

L452 877

L457 881

C460 884 462 887 462 887

L462 887

L462 887

C462 887 459 885 456 882

Z

M441 866

L440 864

L442 865

C443 866 444 867 444 868

L444 868

L444 868

C443 868 442 867 441 866

Z

M433 856

L432 855

L433 856

C434 857 435 857 435 858

L435 858

L435 858

C434 858 434 857 433 856

Z

M421 842

L420 841

L421 842

C422 843 423 843 423 844

L423 844

L423 844

C422 844 422 843 421 842

Z

M520 750

L519 749

L520 750

C521 751 522 751 522 752

L522 752

L522 752

C521 752 521 751 520 750

Z

M510 741

L509 740

L510 741

C511 742 512 742 512 743

L512 743

L512 743

C511 743 511 742 510 741

Z

M491 723

L481 713

L491 723

C497 729 502 734 502 734

L502 734

L502 734

C502 734 497 729 491 723

Z

M471 702

L470 701

L471 702

C472 703 473 703 473 704

L473 704

L473 704

C472 704 472 703 471 702

Z

M544 587

C544 586 545 586 546 585

L548 584

L546 585

C545 586 545 587 544 587

L544 587

L544 587

Z

M554 512

L553 510

L555 511

C556 512 557 513 557 514

L557 514

L557 514

C556 514 555 513 554 512

Z

M517 500

C519 500 521 500 523 500

L526 501

L520 501

L515 501

L517 500

Z

M588 447

C588 446 590 445 592 444

C594 443 596 442 596 441

L596 441

L595 440

C594 439 590 438 585 437

C581 437 576 437 573 436

L569 436

L570 438

L571 439

L569 439

L567 439

L567 438

L567 437

L565 437

C562 437 545 428 539 423

C528 413 518 398 514 383

C512 372 512 353 515 343

C521 321 535 303 554 294

C580 281 613 286 634 307

C640 313 640 313 640 320

C641 323 642 329 642 333

C643 337 643 343 644 346

C644 350 644 354 644 354

L645 354

L650 349

L655 344

L656 347

C660 367 656 390 645 406

C635 421 621 432 604 437

L597 439

L598 440

L599 441

L596 443

C594 444 591 445 590 446

L588 447

L588 447

Z

M598 423

C614 419 628 407 636 391

C640 382 642 374 642 364

C642 348 638 336 629 324

C615 306 590 298 570 304

C556 309 543 320 536 332

C528 345 526 365 530 379

C538 411 567 429 598 423

Z

M273 289

L273 287

L274 288

C274 288 274 290 274 290

L273 292

L273 289

Z

M343 271

L342 269

L344 270

C345 271 346 272 346 273

L346 273

L346 273

C345 273 344 272 343 271

Z

M308 251

C308 251 310 251 310 251

L312 252

L309 252

L307 252

L308 251

Z

M475 228

C475 227 487 176 488 175

L488 175

L488 175

C488 177 476 229 475 229

L475 229

L475 228

Z

M424 92

L422 89

L425 91

C427 93 428 95 428 95

L428 95

L428 95

C428 95 426 94 424 92

Z

"/>

<path fill="#ffffff" stroke="none" d="
"/>

<path fill="#ffffff" stroke="none" d="
"/>

<path fill="#ffffff" stroke="none" d="
"/>

<path fill="#ffffff" stroke="none" d="
"/>

<path fill="#ffffff" stroke="none" d="
"/>

<path fill="#ffffff" stroke="none" d="
"/>

</svg>

