<?xml version="1.0" standalone="no"?>

<!DOCTYPE svg PUBLIC "-//W3C//DTD SVG 20010904//EN"

 "http://www.w3.org/TR/2001/REC-SVG-20010904/DTD/svg10.dtd">

<svg version="1.0" xmlns="http://www.w3.org/2000/svg"

 width="1024.000000pt" height="1024.000000pt" viewBox="0 0 1024.000000 1024.000000"

 preserveAspectRatio="xMidYMid meet">

<path fill="#000000" stroke="none" d="
M101 1003

C106 991 119 968 167 893

C227 797 260 745 282 712

C307 675 342 626 357 608

C375 587 394 573 415 566

C422 564 424 564 434 564

C443 565 445 565 451 568

C459 571 462 576 466 585

C468 593 467 607 464 618

C457 636 444 660 425 685

C396 725 378 743 275 844

C210 907 206 910 183 931

C157 952 139 970 123 987

C111 1001 104 1007 101 1007

L100 1007

L101 1003

Z

M859 883

C830 882 828 882 826 877

C826 875 826 864 826 852

C827 826 830 832 801 799

C793 790 783 779 778 774

C774 768 765 758 759 752

C746 738 669 659 668 659

C668 659 664 662 660 666

C653 673 634 688 631 689

L630 689

L632 685

C633 682 637 677 640 673

C643 668 646 662 648 659

C649 655 651 651 652 649

L654 645

L632 622

C617 608 609 598 608 597

C607 593 611 589 615 588

C618 588 620 589 639 608

C650 620 660 629 660 629

C661 629 664 623 671 606

C686 567 686 566 687 551

C688 544 688 534 689 529

C689 522 689 519 687 513

C686 509 685 505 685 504

L685 501

L684 501

C684 501 680 498 676 494

C668 486 657 478 636 463

C612 446 595 430 587 415

C583 409 582 401 582 396

C583 391 592 383 599 381

C608 377 626 381 642 390

C669 406 707 437 726 461

C733 471 744 489 744 492

C744 493 745 498 747 503

C750 512 750 514 750 525

C750 534 750 538 748 545

C745 556 735 576 725 590

C719 600 704 619 699 624

C698 625 695 628 693 631

C690 634 686 639 684 642

C681 644 679 647 679 647

C679 649 723 693 726 695

C728 696 754 721 785 752

C816 782 842 807 844 808

C845 810 850 810 879 812

C917 813 918 813 920 820

C920 821 920 834 919 848

C918 862 918 875 918 877

C918 879 917 881 916 883

C913 885 913 885 900 885

C892 885 874 884 859 883

Z

M894 774

C884 771 877 762 877 753

C877 742 882 735 893 731

C898 729 899 729 904 730

C915 734 920 740 921 750

C921 757 920 762 915 767

C910 773 902 776 894 774

Z

M908 763

C915 756 915 746 907 740

C895 733 880 747 887 759

C892 766 902 768 908 763

Z

M204 710

C187 706 179 695 182 679

C186 658 197 637 224 601

C256 558 280 532 301 516

C316 505 333 498 345 499

C353 500 370 507 373 511

C382 521 375 548 358 574

C350 586 335 607 323 621

C303 644 252 694 240 701

C228 710 216 712 204 710

Z

M377 327

C347 323 313 300 291 267

C285 259 276 241 273 231

C264 206 262 182 268 162

C271 153 278 139 285 130

C305 103 344 76 379 66

C395 61 433 54 435 55

L435 56

L432 59

C431 61 425 65 420 69

C404 79 382 94 369 104

C332 132 315 158 315 185

C315 200 320 212 331 223

C339 231 349 238 371 249

C397 263 409 273 415 286

C424 304 422 317 409 323

C401 328 391 329 377 327

Z

M542 314

C527 311 514 303 503 291

C494 282 488 271 485 258

C482 246 483 229 486 218

C495 193 515 174 540 168

C549 166 565 166 574 168

C599 174 619 193 628 218

C630 224 630 228 631 238

C631 252 629 262 623 275

C616 289 600 304 584 310

C572 315 555 316 542 314

Z

"/>

<path fill="#1c1c1c" stroke="none" d="
M126 984

C126 983 128 982 128 982

L128 982

L127 984

C126 985 124 986 124 986

L124 986

L126 984

Z

M153 957

C153 956 155 955 155 955

L155 955

L154 957

C153 958 151 959 151 959

L151 959

L153 957

Z

M172 940

C172 939 173 939 174 938

L176 937

L174 938

C173 939 173 940 172 940

L172 940

L172 940

Z

M202 914

C202 913 203 913 204 912

L206 911

L204 912

C203 913 203 914 202 914

L202 914

L202 914

Z

M217 900

C218 898 220 897 220 897

L220 897

L218 900

C217 901 215 902 215 902

L215 902

L217 900

Z

M859 883

C830 882 828 882 826 877

C826 875 826 864 826 852

C827 829 827 829 821 822

C814 814 797 794 786 782

C782 777 774 769 769 763

L760 753

L793 786

C826 819 827 820 827 824

L827 828

L829 828

L830 828

L831 826

L831 825

L836 830

L841 834

L842 833

C843 833 843 831 843 829

L843 826

L848 826

L853 826

L853 825

C853 824 852 822 850 821

C848 818 847 817 848 815

C848 814 848 812 847 811

L846 810

L856 810

C862 811 877 812 890 812

C916 813 918 814 920 820

C920 821 920 834 919 848

C918 862 918 875 918 877

C918 879 917 881 916 883

C913 885 913 885 900 885

C892 885 874 884 859 883

Z

M902 863

C903 859 903 850 904 842

L904 828

L881 827

C868 827 857 827 856 827

L855 827

L854 830

C853 833 849 836 845 836

L843 836

L843 846

C842 851 842 858 842 861

L842 867

L866 868

C880 868 893 869 896 869

L902 869

L902 863

Z

M256 862

C256 862 259 858 264 854

L272 847

L264 854

C260 859 256 862 256 862

L256 862

L256 862

Z

M305 814

C307 811 310 809 310 809

L310 809

L306 814

C303 817 300 819 300 819

L300 819

L305 814

Z

M781 766

C756 738 735 713 733 712

L731 709

L754 731

C766 743 789 765 805 781

L834 809

L832 810

C831 811 829 813 828 814

L826 817

L781 766

Z

M841 809

C840 809 813 783 782 751

L725 695

L723 697

L721 699

L720 697

C717 693 714 691 712 692

L710 692

L710 695

C710 697 711 698 734 724

L743 735

L706 697

L668 659

L673 654

C676 651 678 648 678 648

L678 647

L701 670

C713 683 725 694 726 695

C728 696 771 738 824 790

L845 810

L844 810

C844 810 842 810 841 809

Z

M332 788

C332 788 335 784 340 780

L348 773

L340 780

C336 785 332 788 332 788

L332 788

L332 788

Z

M360 760

C365 754 370 750 370 750

L370 750

L361 760

C356 765 351 769 351 769

L351 769

L360 760

Z

M753 746

L749 741

L749 741

C749 741 752 743 754 746

L758 750

L758 750

C758 750 755 748 753 746

Z

M381 738

C381 737 382 737 383 736

L385 735

L383 736

C382 737 382 738 381 738

L381 738

L381 738

Z

M898 729

C898 729 900 729 900 729

L902 730

L899 730

L897 730

L898 729

Z

M390 728

C390 727 391 727 392 726

L394 725

L392 726

C391 727 391 728 390 728

L390 728

L390 728

Z

M397 720

C397 719 398 719 399 718

L401 717

L399 718

C398 719 398 720 397 720

L397 720

L397 720

Z

M249 695

C249 694 250 694 251 693

L253 692

L251 693

C250 694 250 695 249 695

L249 695

L249 695

Z

M181 685

L181 682

L182 683

C182 684 182 686 182 686

L181 688

L181 685

Z

M265 680

C265 679 266 679 267 678

L269 677

L267 678

C266 679 266 680 265 680

L265 680

L265 680

Z

M645 679

C645 678 646 678 647 677

L649 676

L647 677

C646 678 646 679 645 679

L645 679

L645 679

Z

M286 660

C286 659 287 659 288 658

L290 657

L288 658

C287 659 287 660 286 660

L286 660

L286 660

Z

M649 656

C649 655 650 653 651 652

L652 650

L652 651

C652 651 651 653 651 654

L649 657

L649 656

Z

M631 622

C617 608 609 598 608 597

C607 593 611 589 615 588

C618 588 620 589 639 608

C652 622 660 629 661 628

L662 628

L661 630

C660 631 658 634 656 638

L654 645

L631 622

Z

M686 638

C686 638 686 637 687 637

L688 636

L687 637

L687 639

L686 639

L686 639

L686 638

Z

M310 635

C311 633 313 632 313 632

L313 632

L311 635

C310 636 308 637 308 637

L308 637

L310 635

Z

M669 610

C669 609 669 608 670 607

L671 606

L671 607

C671 607 671 608 670 609

L669 611

L669 610

Z

M361 604

C361 603 362 603 363 602

L365 601

L363 602

C362 603 362 604 361 604

L361 604

L361 604

Z

M716 602

L717 600

L718 601

L718 601

L717 603

L715 605

L716 602

Z

M728 586

C728 584 729 583 730 583

L730 583

L729 585

C728 586 727 587 727 588

L726 588

L728 586

Z

M731 580

C732 579 732 578 733 578

L733 578

L732 580

C731 581 731 582 730 582

L730 582

L731 580

Z

M735 574

L736 570

L737 570

L737 571

L736 574

C735 576 734 577 733 577

L733 577

L735 574

Z

M742 560

C742 559 742 558 743 557

L744 556

L744 557

C744 557 744 558 743 559

L742 561

L742 560

Z

M257 559

C257 558 258 558 259 557

L261 556

L259 557

C258 558 258 559 257 559

L257 559

L257 559

Z

M688 548

C688 542 688 534 689 529

C689 522 689 519 687 513

C686 509 685 505 685 504

L685 501

L684 501

L683 500

L684 500

L686 500

L686 501

C687 502 689 503 691 504

C695 505 697 505 704 503

C708 502 714 501 717 501

L723 501

L719 504

L715 507

L715 508

L716 509

L714 510

L713 512

L714 510

L716 508

L714 508

C713 508 712 510 711 511

C710 513 709 514 709 514

C708 514 690 528 690 529

L690 530

L692 530

L693 530

L693 531

C693 534 690 550 688 554

L687 559

L688 548

Z

M266 549

C266 548 268 547 268 547

L268 547

L267 549

C266 550 264 551 264 551

L264 551

L266 549

Z

M749 537

L749 536

L750 537

L750 538

L750 539

L749 539

L749 537

Z

M750 531

L750 528

L751 529

C751 530 751 532 751 532

L750 534

L750 531

Z

M285 530

C285 529 286 529 287 528

L289 527

L287 528

C286 529 286 530 285 530

L285 530

L285 530

Z

M750 517

L750 516

L751 517

L751 518

L751 519

L750 519

L750 517

Z

M724 501

L724 499

L725 500

L726 500

L725 501

C725 502 725 502 725 502

L724 502

L724 501

Z

M605 438

L602 435

L605 438

C607 440 609 442 609 442

L609 442

L609 442

C609 442 607 440 605 438

Z

M314 294

L312 292

L314 294

C316 295 317 296 317 297

L317 297

L317 297

C316 297 315 296 314 294

Z

M308 288

L306 286

L308 288

C310 289 311 290 311 291

L311 291

L311 291

C310 291 309 290 308 288

Z

M404 272

L402 269

L405 271

C407 273 408 275 408 275

L408 275

L408 275

C408 275 406 274 404 272

Z

M264 188

L264 183

L265 185

C265 187 265 189 265 190

L264 193

L264 188

Z

M555 166

C556 166 558 166 559 166

L562 167

L557 167

L553 167

L555 166

Z

M299 114

C301 111 304 109 304 109

L304 109

L304 109

C304 109 302 112 299 114

L295 119

L299 114

Z

"/>

<path fill="#ffffff" stroke="none" d="
"/>

<path fill="#ffffff" stroke="none" d="
"/>

<path fill="#ffffff" stroke="none" d="
"/>

<path fill="#ffffff" stroke="none" d="
"/>

<path fill="#ffffff" stroke="none" d="
"/>

<path fill="#ffffff" stroke="none" d="
"/>

</svg>

