<?xml version="1.0" encoding="utf-8"?>

<!DOCTYPE svg PUBLIC "-//W3C//DTD SVG 1.1//EN" "http://www.w3.org/Graphics/SVG/1.1/DTD/svg11.dtd">
<!-- Uploaded to: SVG Repo, www.svgrepo.com, Generator: SVG Repo Mixer Tools -->
<svg height="800px" width="800px" version="1.1" id="_x32_" xmlns="http://www.w3.org/2000/svg" xmlns:xlink="http://www.w3.org/1999/xlink" 
	 viewBox="0 0 512 512"  xml:space="preserve">
<style type="text/css">
	.st0{fill:#000000;}
</style>
<g>
	<path class="st0" d="M261.702,128.261c1.091,2.587,4.066,3.788,6.645,2.706l4.675-1.979c2.579-1.082,3.787-4.066,2.696-6.644
		l-10.86-25.701c-1.09-2.578-4.062-3.788-6.644-2.697l-4.672,1.978c-2.579,1.091-3.788,4.066-2.697,6.645L261.702,128.261z"/>
	<path class="st0" d="M273.051,155.129l10.86,25.692c1.091,2.579,4.063,3.796,6.645,2.698l4.67-1.97
		c2.579-1.09,3.788-4.066,2.698-6.653l-10.855-25.684c-1.091-2.588-4.067-3.796-6.645-2.706l-4.671,1.978
		C273.17,149.574,271.96,152.541,273.051,155.129z"/>
	<path class="st0" d="M295.26,207.689l10.856,25.692c1.09,2.588,4.066,3.787,6.644,2.705l4.676-1.978
		c2.578-1.091,3.788-4.066,2.697-6.645l-10.855-25.701c-1.091-2.579-4.066-3.787-6.65-2.689l-4.67,1.962
		C295.379,202.134,294.17,205.11,295.26,207.689z"/>
	<path class="st0" d="M140.412,66.03c0.009,0,0.013,0.008,0.022,0.008c0.008,0,0.016,0,0.025,0L140.412,66.03z"/>
	<path class="st0" d="M511.542,127.602c-1.158-3.779-4.35-6.56-8.252-7.169l-184.944-29.43c-3.966-0.634-7.981,1.124-10.213,4.464
		c-2.232,3.339-2.316,7.719-0.211,11.151c5.373,8.707,9.874,21.11,12.918,33.123c3.069,12.005,4.772,23.773,5.17,31.027
		c0.918,16.52,2.579,30.722,5.766,45.535c3.188,14.829,7.858,30.165,14.69,49.238c7.173,19.986,17.42,42.136,30.511,85.759
		c0.976,3.246,1.315,5.834,1.315,7.855c-0.008,2.342-0.427,3.931-0.99,5.216c-0.849,1.893-2.18,3.339-3.99,4.632
		c-1.793,1.268-3.995,2.224-5.787,2.815h0.009l-0.068,0.009c-0.17,0.051-0.63,0.118-1.268,0.118c-1.061,0-2.582-0.186-4.202-0.676
		c-2.448-0.711-5.093-2.047-7.288-3.94c-2.206-1.919-4.003-4.312-5.174-7.558l-0.207-0.541c-0.004,0-24.184-57.361-52.062-122.975
		c-27.891-65.639-59.45-139.453-74.326-172.636c-6.289-14-15.263-27.156-27.256-37.089c-5.998-4.963-12.766-9.088-20.252-11.971
		c-7.487-2.883-15.691-4.498-24.374-4.49c-10.855-0.008-22.408,2.503-34.396,7.778c-12.001,5.293-24.48,13.342-37.495,24.534
		c-3.22,2.773-6.658,6.129-10.838,9.858c-6.239,5.58-14.018,11.954-23.833,17.635c-9.819,5.673-21.643,10.669-36.116,13.451
		c-2.9,0.55-5.462,2.359-6.958,4.912c-1.497,2.545-1.831,5.664-0.909,8.462l12.631,38.348c1.626,4.946,6.695,7.905,11.801,6.908
		c32.946-6.45,56.487-21.483,74.207-34.189c8.856-6.349,16.338-12.107,22.561-15.945c3.107-1.928,5.876-3.348,8.226-4.227
		c2.367-0.896,4.256-1.234,5.884-1.234c0.553,0,1.052,0.034,1.526,0.101l0.047,0.009c2.456,0.364,4.392,0.803,5.862,1.285
		c2.604,0.871,3.686,1.64,4.714,2.655c0.765,0.786,1.556,1.868,2.46,3.686c1.356,2.688,2.806,6.932,4.535,12.622
		c1.746,5.698,3.817,12.8,6.734,21.322c5.77,16.832,27.172,78.81,48.654,141.354c10.742,31.281,21.499,62.688,30.334,88.651
		c8.827,25.955,15.742,46.524,18.726,55.874l0.042,0.127c8.864,26.63,24.813,48.746,46.004,64.074
		c21.178,15.345,47.509,23.824,76.595,23.807c5.711-0.008,11.528-0.329,17.433-0.98h0.004c14.541-1.616,28.072-6.333,40.056-13.51
		c17.996-10.779,32.477-27.011,42.436-46.574c9.959-19.563,15.433-42.457,15.433-66.873c0-15.877-2.317-32.397-7.236-49.043
		l0.016,0.068c0,0-0.82-2.849-2.176-7.617c-4.072-14.288-12.961-45.864-18.748-68.851c-1.796-7.119-2.654-15.708-2.646-24.281
		c0-6.645,0.499-13.29,1.357-19.292c0.854-6.003,2.088-11.38,3.424-15.345c1.81-5.444,5.018-11.59,8.882-17.559
		c5.783-8.978,12.977-17.584,18.679-23.841c2.849-3.128,5.326-5.682,7.072-7.423c0.875-0.88,1.564-1.556,2.029-2.004l0.516-0.499
		l0.122-0.118l0.022-0.017C511.617,135.464,512.704,131.372,511.542,127.602z M29.814,119.612l-6.172-18.734
		c11.11-3.12,20.811-7.348,29.197-12.022l7.312,19.014C51.191,112.519,41.202,116.619,29.814,119.612z M470.344,330.74l0.021,0.068
		c4.367,14.779,6.392,29.32,6.392,43.184c0.009,28.44-8.538,53.997-22.716,72.825c-7.089,9.436-15.564,17.179-25.105,22.895
		c-9.55,5.714-20.159,9.418-31.725,10.703h0.008c-5.178,0.575-10.234,0.845-15.163,0.845c-25.117-0.016-46.934-7.185-64.476-19.876
		c-17.53-12.698-30.879-30.992-38.522-53.87c-3.116-9.757-9.997-30.208-18.811-56.112c-26.521-77.982-70.368-204.888-79.001-230.056
		c-2.789-8.15-4.776-14.98-6.607-20.95c-1.373-4.481-2.654-8.488-4.231-12.258c-1.184-2.824-2.545-5.546-4.324-8.116
		c-2.629-3.864-6.371-7.305-10.801-9.57c-4.425-2.308-9.308-3.593-14.849-4.413c-1.573-0.246-3.12-0.347-4.612-0.347
		c-4.65,0-9.059,1.024-13.164,2.562c-7.194,2.739-13.649,6.984-20.429,11.76c-8.234,5.859-16.989,12.606-27.003,19.072
		l-7.578-19.706c5.618-4.092,10.445-8.142,14.456-11.735c4.506-4.024,8.099-7.508,10.534-9.596
		c11.776-10.137,22.606-17.002,32.35-21.279c9.752-4.295,18.384-6.037,26.068-6.037c6.155,0,11.744,1.116,16.951,3.112
		c7.799,3.001,14.804,8.082,20.912,14.702c6.099,6.62,11.244,14.77,15.166,23.528c14.706,32.803,46.296,106.692,74.156,172.264
		c13.937,32.793,26.944,63.524,36.476,86.064c4.76,11.26,8.653,20.476,11.354,26.884c2.701,6.392,4.206,9.968,4.206,9.968
		l0.016,0.008c3.276,8.801,9.3,15.252,15.751,19.275c3.301,2.072,6.729,3.568,10.115,4.566c3.399,0.988,6.746,1.504,10.035,1.504
		c2.625,0,5.22-0.312,7.876-1.183l0.004-0.009c4.02-1.361,9.862-3.779,15.205-8.868c2.651-2.536,5.136-5.8,6.899-9.773
		c1.776-3.974,2.782-8.606,2.773-13.619c0-4.321-0.718-8.92-2.182-13.789c-13.361-44.554-24.196-68.175-30.853-86.791
		c-6.658-18.599-11.016-33.006-13.937-46.617c-2.921-13.603-4.451-26.504-5.343-42.338c-0.338-5.935-1.272-13.434-2.832-21.66
		l115.518,18.836c-2.988,5.217-5.622,10.652-7.512,16.274c-1.855,5.546-3.276,11.98-4.282,18.98c-1.002,7-1.564,14.558-1.564,22.218
		c0.004,9.908,0.93,19.986,3.272,29.319C457.105,284.85,470.327,330.69,470.344,330.74z M477.044,141.923
		c-3.116,3.72-6.37,7.862-9.532,12.258L340.55,133.477c-1.657-6.315-3.623-12.741-6.007-18.971l146.086,23.241
		C479.466,139.074,478.265,140.46,477.044,141.923z"/>
</g>
</svg>