<?xml version="1.0" encoding="iso-8859-1"?>
<!-- Uploaded to: SVG Repo, www.svgrepo.com, Generator: SVG Repo Mixer Tools -->
<!DOCTYPE svg PUBLIC "-//W3C//DTD SVG 1.1//EN" "http://www.w3.org/Graphics/SVG/1.1/DTD/svg11.dtd">
<svg fill="#000000" version="1.1" id="Capa_1" xmlns="http://www.w3.org/2000/svg" xmlns:xlink="http://www.w3.org/1999/xlink" 
	 width="800px" height="800px" viewBox="0 0 352.623 352.623"
	 xml:space="preserve">
<g>
	<path d="M196.654,201.173l17.61-6.677l17.654-8.593l60.453-52.75l49.721-39.921l10.53-22.378L321.054,36.32h-24.432l-49.051,51.235
		l-38.457,32.354l-0.104-0.113l-0.761,0.833l-22.904,25.1l-6.488,12.352l-8.302,15.803l-52.21,49.096
		c0.113-2.867-0.082-5.475-0.431-7.78c-2.531-16.735-14.927-31.365-36.843-43.486c-15.932-8.811-29.294-13.095-40.84-13.095
		c-8.837,0-16.45,2.536-22.62,7.535C2.446,178.411,2.404,201.477,5.939,213.132c4.62,15.213,13.796,20.86,20.712,22.929
		c2.656,0.786,5.473,1.187,8.38,1.187c15.357,0,29.36-11.009,32.026-13.219c2.759-2.304,4.452-5.544,4.774-9.112
		c0.323-3.581-0.769-7.061-3.071-9.816c-2.562-3.072-6.32-4.83-10.315-4.83c-3.16,0-6.229,1.119-8.562,3.087
		c-3.478,2.841-10.567,7.046-14.745,7.046c-0.447,0-0.693-0.06-0.822-0.101c-0.247-0.073-1.512-1.192-2.656-4.971
		c-1.75-5.771-0.779-15.34,2.86-18.279c1.236-1.003,3.171-1.512,5.746-1.512c4.688,0,13.315,1.685,27.801,9.701
		c14.023,7.758,22.077,16.042,23.275,23.979c1.248,8.262-4.971,16.613-9.181,21.376H0v75.706h350.073v-57.574H133.702
		L196.654,201.173z M254.942,95.408l46.274-48.336h15.102l23.518,25.721l-6.404,13.612l-48.188,38.686l-44.191,43.042l-30.519-35.36
		L254.942,95.408z M208.979,135.799l28.782,31.893l-19.628,15.359l-26.961-27.74L208.979,135.799z M339.322,269.478v36.063H10.75
		v-2.688v-48.83v-2.688h2.688h73.403c0.144-0.146,0.312-0.319,0.478-0.498c4.209-4.371,17.013-17.695,14.669-33.233
		c-1.74-11.522-11.397-22.216-28.704-31.78c-21.115-11.678-36.848-14.15-45.52-7.129c-8.438,6.835-8.798,21.796-6.381,29.76
		c2.04,6.714,5.355,10.799,9.858,12.146c10.682,3.218,25.352-8.835,25.491-8.954c1.134-0.956,2.827-0.805,3.785,0.34
		c0.951,1.135,0.796,2.83-0.338,3.781c-0.688,0.571-16.977,13.979-30.467,9.982c-6.344-1.9-10.875-7.19-13.473-15.737
		c-2.924-9.647-2.336-27.028,8.144-35.502c10.643-8.619,27.98-6.401,51.502,6.609c18.84,10.415,29.415,22.426,31.421,35.686
		c2.283,15.139-7.194,27.895-13.105,34.529h9.701l75.353-70.854l10.879-20.723l23.7,23.406l-22.924,8.687l-84.901,77.628H339.322z"
		/>
</g>
</svg>